Coordinates
version=1
nRows=28
nColumns=23
inDegrees=yes

Units are S.I. units (second, meters, Newtons, ...)
If the header above contains a line with 'inDegrees', this indicates whether rotational values are in degrees (yes) or radians (no).

endheader
time	pelvis_tilt	pelvis_list	pelvis_rotation	pelvis_tx	pelvis_ty	pelvis_tz	hip_flexion_r	hip_adduction_r	hip_rotation_r	knee_angle_r	knee_angle_r_beta	ankle_angle_r	subtalar_angle_r	mtp_angle_r	hip_flexion_l	hip_adduction_l	hip_rotation_l	knee_angle_l	knee_angle_l_beta	ankle_angle_l	subtalar_angle_l	mtp_angle_l
     15.00000000	    -19.13081373	      6.68710155	      6.52305021	      2.03293113	      0.86952251	      0.99256674	     35.77112045	     -9.73786752	      0.86227742	    110.42134308	      1.92721600	    -12.29116472	    -21.67523941	      0.00000000	     32.55235992	     11.87973138	     -2.04363733	     48.64111424	      0.84894760	     24.77642355	    -12.30514441	      0.00000000
     15.00666667	    -19.35917904	      6.10924407	      6.41117038	      2.03253531	      0.87189711	      0.99261126	     38.81091666	     -9.14795803	      0.99994798	    109.90512098	      1.91820623	    -11.57558117	    -21.56921010	      0.00000000	     29.99073685	     11.27750353	     -1.26895530	     47.25905778	      0.82482616	     24.97011250	    -11.81915709	      0.00000000
     15.01333333	    -19.32666679	      5.57898487	      5.77000778	      2.03245600	      0.87499489	      0.99357919	     41.54430655	     -8.10567263	      1.44460343	    109.00663292	      1.90252465	    -10.30168680	    -21.03700927	      0.00000000	     27.05778355	     10.26301864	     -1.27178552	     45.50753208	      0.79425627	     24.20206671	    -11.06856442	      0.00000000
     15.02000000	    -18.86048606	      4.72539981	      5.39906424	      2.03349786	      0.87929120	      0.99406044	     43.30575566	     -7.04320018	      1.13745357	    107.40808923	      1.87462480	     -9.26112311	    -20.95904382	      0.00000000	     23.53208686	      8.93443861	     -1.15238203	     43.51907338	      0.75955112	     23.52932300	     -9.83848123	      0.00000000
     15.02666667	    -19.07816501	      4.05848052	      4.93269183	      2.03424765	      0.88283954	      0.99463872	     45.76443564	     -6.07227393	      1.06342800	    105.60413834	      1.84313992	     -8.16434423	    -20.98084067	      0.00000000	     20.73331124	      7.83644477	     -1.24489461	     41.30278677	      0.72086962	     22.03524884	     -9.01924629	      0.00000000
     15.03333333	    -18.65041434	      3.06104244	      4.54746364	      2.03603225	      0.88772220	      0.99507684	     47.08382073	     -4.90724506	      0.44136250	    103.18208517	      1.80086712	     -7.07569637	    -21.28560671	      0.00000000	     17.13903644	      6.31660769	     -1.37937787	     38.77951156	      0.67683016	     20.07490709	     -7.95460070	      0.00000000
     15.04000000	    -18.92296700	      2.31931857	      3.97429431	      2.03744897	      0.89154334	      0.99575747	     49.13907626	     -3.82481061	      0.16871038	    100.63289636	      1.75637538	     -5.93204322	    -21.55920243	      0.00000000	     14.35539384	      5.06187534	     -1.96617909	     36.19209225	      0.63167117	     17.62004633	     -6.98738519	      0.00000000
     15.04666667	    -18.80757161	      1.31009765	      3.55032685	      2.03957754	      0.89615560	      0.99613407	     50.39390690	     -2.71139778	     -0.57602644	     97.58499289	      1.70317943	     -4.80458417	    -22.00369398	      0.00000000	     11.12896120	      3.54616707	     -2.53114566	     33.41957835	      0.58328168	     14.68973022	     -5.89454861	      0.00000000
     15.05333333	    -19.48497612	      0.82331583	      2.75980956	      2.04102014	      0.89930819	      0.99702722	     52.58275366	     -1.69520287	     -0.61506167	     94.54570853	      1.65013391	     -3.66124255	    -22.35343263	      0.00000000	      8.83342153	      2.60797118	     -3.67579634	     30.68867781	      0.53561847	     11.35035709	     -4.86581873	      0.00000000
     15.06000000	    -19.75090305	      0.07353164	      2.18732150	      2.04312323	      0.90315773	      0.99753116	     53.94851676	     -0.73788092	     -1.16676070	     91.04585948	      1.58905002	     -2.56507030	    -22.86051697	      0.00000000	      6.08633370	      1.49634700	     -4.54310917	     27.82308617	      0.48560446	      7.64033267	     -3.98911733	      0.00000000
     15.06666667	    -20.48918605	     -0.28448970	      1.38923241	      2.04472388	      0.90599992	      0.99842650	     55.80441320	      0.13656289	     -1.26871353	     87.47218040	      1.52667755	     -1.49659218	    -23.28357293	      0.00000000	      3.96056831	      0.84599750	     -5.71040874	     25.09889666	      0.43805839	      3.75484833	     -3.06101932	      0.00000000
     15.07333333	    -21.49212537	     -0.37252171	      0.46108164	      2.04597562	      0.90814410	      0.99960870	     57.85755863	      0.96198023	     -1.11889424	     83.75785767	      1.46185039	     -0.38488293	    -23.51303565	      0.00000000	      2.28092700	      0.49657319	     -7.11857829	     22.62926754	      0.39495523	     -0.11552544	     -1.92366568	      0.00000000
     15.08000000	    -22.40405461	     -0.41615310	     -0.38006011	      2.04722284	      0.91020430	      1.00074739	     59.61069928	      1.66835705	     -1.08183581	     79.79428283	      1.39267296	      0.67279199	    -23.67300111	      0.00000000	      0.62932042	      0.26258107	     -8.26609751	     20.31862036	      0.35462682	     -3.97785262	     -0.91707737	      0.00000000
     15.08666667	    -23.27292187	     -0.37483503	     -1.11805369	      2.04836606	      0.91204322	      1.00189692	     61.13315681	      2.25707930	     -1.08014715	     75.61241632	      1.31968562	      1.73009858	    -23.62091998	      0.00000000	     -0.87915970	      0.14741892	     -9.18114785	     18.31123467	      0.31959134	     -7.60915563	      0.01237788	      0.00000000
     15.09333333	    -23.47410951	     -0.62790085	     -1.75177100	      2.05001316	      0.91472276	      1.00300952	     61.62121498	      2.90678201	     -1.45741715	     71.06436134	      1.24030709	      2.82544729	    -23.40734387	      0.00000000	     -3.15669524	     -0.11679041	     -9.25929866	     16.16658088	      0.28216007	    -11.00311326	      0.18522023	      0.00000000
     15.10000000	    -24.53024661	     -0.36038615	     -2.32345423	      2.05063142	      0.91557119	      1.00432073	     63.05672030	      3.23379792	     -1.47854971	     66.56995014	      1.16186481	      3.99415017	    -22.79543739	      0.00000000	     -3.92275487	     -0.03796318	     -9.70324853	     15.19379076	      0.26518167	    -13.38723628	      1.16404273	      0.00000000
     15.10666667	    -24.11889969	     -0.79356920	     -2.82841258	      2.05217675	      0.91830572	      1.00554684	     62.51339429	      3.84601918	     -2.21161497	     61.64952809	      1.07598725	      5.32772053	    -21.56072643	      0.00000000	     -6.39650159	     -0.50991994	     -9.44341097	     14.03241123	      0.24491178	    -15.68542919	      1.23352046	      0.00000000
     15.11333333	    -24.21790182	     -0.94476632	     -3.17214575	      2.05307053	      0.91981569	      1.00672485	     62.45640038	      4.15792028	     -2.88711543	     56.74335256	      0.99035833	      6.82475030	    -19.78723794	      0.00000000	     -7.79451120	     -0.81084872	     -9.09203181	     13.94796498	      0.24343791	    -16.94987569	      1.46771969	      0.00000000
     15.12000000	    -24.06188502	     -1.24296752	     -3.33761515	      2.05403775	      0.92133047	      1.00775924	     61.92185709	      4.36103366	     -3.94213168	     51.73748402	      0.90298944	      8.45590755	    -17.35696026	      0.00000000	     -9.20344662	     -1.26221812	     -8.35224764	     14.45005084	      0.25220096	    -17.62625855	      1.49345292	      0.00000000
     15.12666667	    -23.78854341	     -1.57954981	     -3.39127644	      2.05488770	      0.92257409	      1.00864648	     61.11222776	      4.47783734	     -5.26452683	     46.74019636	      0.81577032	     10.26481634	    -14.19744799	      0.00000000	    -10.38947612	     -1.76515768	     -7.43547167	     15.69254535	      0.27388658	    -17.76401412	      1.29979810	      0.00000000
     15.13333333	    -23.37661930	     -2.00413617	     -3.30520528	      2.05574733	      0.92361004	      1.00932933	     60.00286559	      4.52319160	     -6.95640533	     41.81843886	      0.72986945	     12.15234628	    -10.36082439	      0.00000000	    -11.40146290	     -2.36081253	     -6.35782045	     17.61096251	      0.30736928	    -17.51760881	      0.96766013	      0.00000000
     15.14000000	    -22.91337241	     -2.46936708	     -3.13486179	      2.05655842	      0.92425995	      1.00990269	     58.73727975	      4.57640245	     -8.88409735	     37.09967965	      0.64751156	     13.98401886	     -6.11733420	      0.00000000	    -12.13573448	     -3.00340623	     -5.25710861	     20.20710019	      0.35268043	    -17.03809047	      0.57822891	      0.00000000
     15.14666667	    -22.37748834	     -2.91754453	     -2.94940930	      2.05733283	      0.92447687	      1.01039776	     57.34659222	      4.71124604	    -10.82755752	     32.70929479	      0.57088489	     15.66920910	     -1.80942163	      0.00000000	    -12.67448640	     -3.62972755	     -4.37049207	     23.33643464	      0.40729762	    -16.57250749	      0.23637543	      0.00000000
     15.15333333	    -21.95195938	     -3.30134531	     -2.83451527	      2.05786386	      0.92402231	      1.01097832	     56.08190439	      5.03102460	    -12.39864166	     28.73431515	      0.50150841	     16.99661713	      1.90365691	      0.00000000	    -12.77101870	     -4.21986197	     -3.80188333	     27.08760111	      0.47276783	    -16.12299432	      0.13368585	      0.00000000
     15.16000000	    -21.91054809	     -3.27864141	     -2.94385080	      2.05782245	      0.92243806	      1.01172312	     55.35414614	      5.45871417	    -12.80929009	     25.34317200	      0.44232179	     17.77338666	      4.08787497	      0.00000000	    -12.21071615	     -4.29310055	     -3.25427483	     31.23442303	      0.54514352	    -16.08430842	     -0.62238306	      0.00000000
     15.16666667	    -21.27820015	     -3.93496153	     -2.88227645	      2.05840241	      0.92131075	      1.01204195	     53.92753460	      6.07013449	    -14.24000268	     22.54246773	      0.39344028	     18.40761120	      6.65267881	      0.00000000	    -12.09546011	     -5.26248280	     -3.38746770	     35.78661983	      0.62459434	    -16.09700702	     -0.15103450	      0.00000000
     15.17333333	    -21.18263726	     -4.05113463	     -3.09362233	      2.05829876	      0.91893074	      1.01244880	     53.31483299	      6.56975012	    -14.51099040	     20.64954001	      0.36040246	     18.52940654	      7.68135083	      0.00000000	    -11.21292234	     -5.52036638	     -3.34304192	     40.55451053	      0.70780974	    -16.68544628	     -0.76969858	      0.00000000
     15.18000000	    -20.86873134	     -4.41638879	     -3.40003547	      2.05829407	      0.91645289	      1.01275909	     52.55420856	      7.22912071	    -14.86796534	     19.55499190	      0.34129899	     18.27977869	      7.98455694	      0.00000000	    -10.43720957	     -6.12349744	     -3.76179028	     45.53430958	      0.79472362	    -17.39571880	     -0.80325755	      0.00000000
